<svg xmlns="http://www.w3.org/2000/svg" viewBox="0 0 800 600">
  <!-- Background transition gradient from data space to natural world -->
  <defs>
    <linearGradient id="backgroundGradient" x1="0%" y1="0%" x2="0%" y2="100%">
      <stop offset="0%" stop-color="#0B0C10"/>
      <stop offset="70%" stop-color="#144D53"/>
      <stop offset="100%" stop-color="#66A5AD"/>
    </linearGradient>
    
    <!-- Watercolor effect for coastline -->
    <filter id="watercolorEffect" x="-20%" y="-20%" width="140%" height="140%">
      <feTurbulence type="fractalNoise" baseFrequency="0.01" numOctaves="3" result="noise"/>
      <feDisplacementMap in="SourceGraphic" in2="noise" scale="5" xChannelSelector="R" yChannelSelector="G"/>
      <feGaussianBlur stdDeviation="2"/>
    </filter>
  </defs>
  
  <!-- Base background -->
  <rect width="800" height="600" fill="url(#backgroundGradient)"/>
  
  <!-- Grid and tech patterns fading away -->
  <g opacity="0.15">
    <!-- Horizontal lines -->
    <line x1="0" y1="100" x2="800" y2="100" stroke="#66FCF1" stroke-width="1"/>
    <line x1="0" y1="200" x2="800" y2="200" stroke="#66FCF1" stroke-width="1"/>
    <line x1="0" y1="300" x2="800" y2="300" stroke="#66FCF1" stroke-width="1"/>
    <line x1="0" y1="400" x2="800" y2="400" stroke="#66FCF1" stroke-width="1"/>
    <line x1="0" y1="500" x2="800" y2="500" stroke="#66FCF1" stroke-width="1"/>
    
    <!-- Vertical lines -->
    <line x1="100" y1="0" x2="100" y2="600" stroke="#66FCF1" stroke-width="1"/>
    <line x1="200" y1="0" x2="200" y2="600" stroke="#66FCF1" stroke-width="1"/>
    <line x1="300" y1="0" x2="300" y2="600" stroke="#66FCF1" stroke-width="1"/>
    <line x1="400" y1="0" x2="400" y2="600" stroke="#66FCF1" stroke-width="1"/>
    <line x1="500" y1="0" x2="500" y2="600" stroke="#66FCF1" stroke-width="1"/>
    <line x1="600" y1="0" x2="600" y2="600" stroke="#66FCF1" stroke-width="1"/>
    <line x1="700" y1="0" x2="700" y2="600" stroke="#66FCF1" stroke-width="1"/>
  </g>
  
  <!-- World Map Interface (partially transformed) -->
  <rect x="200" y="50" width="400" height="250" rx="5" fill="#1F2833" stroke="#45A29E" stroke-width="2" opacity="0.8"/>
  <text x="220" y="80" font-family="Arial" font-size="18" fill="#C5C6C7" font-weight="bold">Global Map</text>
  
  <!-- Map elements -->
  <g transform="translate(220, 100)">
    <!-- Simplified world map -->
    <path d="M20,40 Q40,35 60,45 Q80,40 100,35 L120,25 Q140,30 160,40 L180,50" fill="none" stroke="#66FCF1" stroke-width="1.5"/>
    <path d="M30,70 Q50,65 70,75 Q90,70 110,65 L130,55 Q150,60 170,70" fill="none" stroke="#66FCF1" stroke-width="1.5"/>
    
    <!-- Vietnam highlighted and transforming -->
    <circle cx="140" cy="65" r="15" fill="#E74C3C">
      <animate attributeName="r" from="15" to="35" dur="4s" fill="freeze"/>
      <animate attributeName="opacity" from="1" to="0.6" dur="4s" fill="freeze"/>
    </circle>
    <text x="140" cy="90" font-family="Arial" font-size="12" fill="#FFFFFF" text-anchor="middle">Coastal Vietnam - Grandma's Pin</text>
  </g>
  
  <!-- Data lines transforming into natural elements -->
  <!-- Data lines melting into water -->
  <g opacity="0.7">
    <path d="M100,400 Q200,380 300,410 Q400,430 500,390 Q600,370 700,400" fill="none" stroke="#4FC3F7" stroke-width="3" stroke-linecap="round">
      <animate attributeName="d" 
               values="M100,400 Q200,380 300,410 Q400,430 500,390 Q600,370 700,400;
                      M100,420 Q200,410 300,425 Q400,440 500,410 Q600,400 700,420" 
               dur="6s" 
               repeatCount="indefinite" 
               fill="freeze"/>
    </path>
    
    <path d="M100,420 Q200,440 300,420 Q400,400 500,430 Q600,450 700,420" fill="none" stroke="#4FC3F7" stroke-width="2" stroke-linecap="round">
      <animate attributeName="d" 
               values="M100,420 Q200,440 300,420 Q400,400 500,430 Q600,450 700,420;
                      M100,430 Q200,450 300,430 Q400,410 500,440 Q600,460 700,430" 
               dur="8s" 
               repeatCount="indefinite" 
               fill="freeze"/>
    </path>
  </g>
  
  <!-- Charts dissolving -->
  <g opacity="0.4">
    <path d="M250,250 L300,200 L350,230 L400,190 L450,220 L500,180" stroke="#FF4081" stroke-width="2" fill="none">
      <animate attributeName="opacity" from="0.4" to="0" dur="5s" fill="freeze"/>
    </path>
    
    <path d="M250,270 L300,290 L350,260 L400,280 L450,250 L500,270" stroke="#3498DB" stroke-width="2" fill="none">
      <animate attributeName="opacity" from="0.4" to="0" dur="6s" fill="freeze"/>
    </path>
  </g>
  
  <!-- Emerging Vietnam coastal landscape -->
  <!-- Coastline emerging with watercolor effect -->
  <g filter="url(#watercolorEffect)" opacity="0.7">
    <path d="M200,500 Q300,480 400,490 Q500,470 600,500" fill="#81C784" opacity="0.4"/>
    <path d="M200,550 Q300,530 400,540 Q500,520 600,550" fill="#66A5AD" opacity="0.6"/>
  </g>
  
  <!-- Waves beginning to form -->
  <g>
    <path d="M0,530 Q50,520 100,530 Q150,540 200,530 Q250,520 300,530 Q350,540 400,530 Q450,520 500,530 Q550,540 600,530 Q650,520 700,530 Q750,540 800,530" fill="none" stroke="#B3E5FC" stroke-width="2" opacity="0.5">
      <animate attributeName="d" 
               values="M0,530 Q50,520 100,530 Q150,540 200,530 Q250,520 300,530 Q350,540 400,530 Q450,520 500,530 Q550,540 600,530 Q650,520 700,530 Q750,540 800,530;
                      M0,530 Q50,540 100,530 Q150,520 200,530 Q250,540 300,530 Q350,520 400,530 Q450,540 500,530 Q550,520 600,530 Q650,540 700,530 Q750,520 800,530" 
               dur="6s" 
               repeatCount="indefinite"/>
    </path>
    
    <path d="M0,550 Q50,540 100,550 Q150,560 200,550 Q250,540 300,550 Q350,560 400,550 Q450,540 500,550 Q550,560 600,550 Q650,540 700,550 Q750,560 800,550" fill="none" stroke="#B3E5FC" stroke-width="2" opacity="0.3">
      <animate attributeName="d" 
               values="M0,550 Q50,540 100,550 Q150,560 200,550 Q250,540 300,550 Q350,560 400,550 Q450,540 500,550 Q550,560 600,550 Q650,540 700,550 Q750,560 800,550;
                      M0,550 Q50,560 100,550 Q150,540 200,550 Q250,560 300,550 Q350,540 400,550 Q450,560 500,550 Q550,540 600,550 Q650,560 700,550 Q750,540 800,550" 
               dur="7s" 
               repeatCount="indefinite"/>
    </path>
  </g>
  
  <!-- Palm trees starting to emerge -->
  <g opacity="0.5">
    <rect x="300" y="470" width="10" height="30" fill="#795548"/>
    <path d="M285,470 L325,470 L305,440" fill="#2E7D32"/>
    <path d="M290,450 L320,450 L305,420" fill="#2E7D32"/>
    
    <rect x="500" y="480" width="8" height="20" fill="#795548"/>
    <path d="M485,480 L525,480 L505,460" fill="#2E7D32"/>
    <path d="M490,465 L520,465 L505,445" fill="#2E7D32"/>
  </g>
  
  <!-- Data dripping down like ink/watercolor -->
  <g>
    <path d="M300,160 L300,350" stroke="#4FC3F7" stroke-width="2" opacity="0.6">
      <animate attributeName="stroke-dasharray" values="5,250;5,200;5,150;5,100;5,50;5,0" dur="5s" fill="freeze"/>
    </path>
    
    <path d="M350,180 L350,370" stroke="#FF4081" stroke-width="2" opacity="0.6">
      <animate attributeName="stroke-dasharray" values="5,250;5,200;5,150;5,100;5,50;5,0" dur="6s" fill="freeze"/>
    </path>
    
    <path d="M400,150 L400,340" stroke="#FFC107" stroke-width="2" opacity="0.6">
      <animate attributeName="stroke-dasharray" values="5,250;5,200;5,150;5,100;5,50;5,0" dur="4s" fill="freeze"/>
    </path>
    
    <path d="M450,170 L450,360" stroke="#4CAF50" stroke-width="2" opacity="0.6">
      <animate attributeName="stroke-dasharray" values="5,250;5,200;5,150;5,100;5,50;5,0" dur="5.5s" fill="freeze"/>
    </path>
  </g>
  
  <!-- Color washes transitioning -->
  <rect x="0" y="0" width="800" height="600" fill="url(#backgroundGradient)" opacity="0.2">
    <animate attributeName="opacity" from="0.2" to="0.5" dur="5s" fill="freeze"/>
  </rect>
  
  <!-- Subtle hints of kitchen beginning to appear -->
  <g opacity="0.1">
    <rect x="150" y="50" width="500" height="300" rx="5" fill="#FFF8E1"/>
    <rect x="200" y="400" width="400" height="100" fill="#8D6E63"/>
  </g>
  
  <!-- Home Pin animation -->
  <g transform="translate(400, 200)">
    <circle cx="0" cy="0" r="25" fill="#E74C3C" opacity="0.7">
      <animate attributeName="r" from="25" to="100" dur="3s" fill="freeze"/>
      <animate attributeName="opacity" from="0.7" to="0" dur="3s" fill="freeze"/>
    </circle>
    <circle cx="0" cy="0" r="20" fill="#E74C3C" opacity="0.9">
      <animate attributeName="r" from="20" to="80" dur="3s" fill="freeze"/>
      <animate attributeName="opacity" from="0.9" to="0" dur="3s" fill="freeze"/>
    </circle>
    <path d="M0,-15 L0,15 M-15,0 L15,0" stroke="#FFFFFF" stroke-width="3">
      <animate attributeName="opacity" from="1" to="0" dur="2s" fill="freeze"/>
    </path>
  </g>
  
  <!-- Audio visualization transitioning from synths to natural sounds -->
  <g transform="translate(40, 40)" opacity="0.3">
    <!-- Digital waveform -->
    <path d="M0,20 L5,10 L10,20 L15,30 L20,20 L25,10 L30,20" stroke="#66FCF1" stroke-width="1">
      <animate attributeName="opacity" from="1" to="0" dur="4s" fill="freeze"/>
    </path>
    
    <!-- Natural waveform emerging -->
    <path d="M0,20 Q10,15 20,20 Q30,25 40,20" stroke="#81C784" stroke-width="1">
      <animate attributeName="opacity" from="0" to="1" dur="4s" fill="freeze"/>
    </path>
  </g>
</svg>
